<svg width="255" height="25" viewBox="0 0 255 25" fill="none" xmlns="http://www.w3.org/2000/svg">
<g clip-path="url(#clip0_65_35)">
<path d="M61.2314 24.1667L71.1481 0.833333H75.1777L85.1259 24.1667H80.8444L72.3129 3.13333H73.95L65.45 24.1667H61.2314ZM65.7963 18.7667L66.8981 15.3667H78.7981L79.9 18.7667H65.7963Z" fill="#111111"/>
<path d="M87.9285 24.1667V0.833333H92.0211V20.5H103.543V24.1667H87.9285Z" fill="#111111"/>
<path d="M106.774 24.1667V0.833333H115.841C117.793 0.833333 119.461 1.16667 120.847 1.83333C122.253 2.5 123.334 3.45555 124.089 4.7C124.845 5.94445 125.222 7.42222 125.222 9.13333C125.222 10.8444 124.845 12.3222 124.089 13.5667C123.334 14.8111 122.253 15.7667 120.847 16.4333C119.461 17.1 117.793 17.4333 115.841 17.4333H109.041L110.867 15.4V24.1667H106.774ZM110.867 15.8667L109.041 13.7667H115.652C117.457 13.7667 118.811 13.3667 119.713 12.5667C120.637 11.7444 121.098 10.6 121.098 9.13333C121.098 7.64445 120.637 6.5 119.713 5.7C118.811 4.9 117.457 4.5 115.652 4.5H109.041L110.867 2.36667V15.8667Z" fill="#111111"/>
<path d="M144.798 0.833333H148.891V24.1667H144.798V0.833333ZM133.402 24.1667H129.309V0.833333H133.402V24.1667ZM145.113 14.1667H133.056V10.4667H145.113V14.1667Z" fill="#111111"/>
<path d="M151.679 24.1667L161.596 0.833333H165.626L175.574 24.1667H171.292L162.761 3.13333H164.398L155.898 24.1667H151.679ZM156.244 18.7667L157.346 15.3667H169.246L170.348 18.7667H156.244Z" fill="#111111"/>
<path d="M197.277 24.5C195.598 24.5 194.034 24.2111 192.586 23.6333C191.159 23.0333 189.91 22.2 188.84 21.1333C187.79 20.0444 186.972 18.7667 186.384 17.3C185.796 15.8333 185.503 14.2333 185.503 12.5C185.503 10.7667 185.796 9.16667 186.384 7.7C186.972 6.23334 187.801 4.96667 188.871 3.9C189.941 2.81111 191.19 1.97778 192.617 1.4C194.045 0.8 195.608 0.5 197.308 0.5C199.113 0.5 200.761 0.833333 202.251 1.5C203.741 2.14444 205 3.11111 206.029 4.4L203.384 7.03334C202.587 6.12222 201.695 5.44445 200.708 5C199.722 4.53333 198.651 4.3 197.497 4.3C196.343 4.3 195.283 4.5 194.317 4.9C193.373 5.3 192.544 5.86667 191.83 6.6C191.138 7.33333 190.592 8.2 190.193 9.2C189.816 10.2 189.627 11.3 189.627 12.5C189.627 13.7 189.816 14.8 190.193 15.8C190.592 16.8 191.138 17.6667 191.83 18.4C192.544 19.1333 193.373 19.7 194.317 20.1C195.283 20.5 196.343 20.7 197.497 20.7C198.651 20.7 199.722 20.4778 200.708 20.0333C201.695 19.5667 202.587 18.8667 203.384 17.9333L206.029 20.6C205 21.8667 203.741 22.8333 202.251 23.5C200.761 24.1667 199.103 24.5 197.277 24.5Z" fill="#111111"/>
<path d="M219.776 24.1667V20.5667L219.555 19.8V13.5C219.555 12.2778 219.209 11.3333 218.517 10.6667C217.824 9.97778 216.775 9.63333 215.368 9.63333C214.424 9.63333 213.49 9.78889 212.567 10.1C211.664 10.4111 210.898 10.8444 210.268 11.4L208.726 8.36667C209.628 7.63333 210.699 7.08889 211.937 6.73334C213.196 6.35556 214.497 6.16667 215.841 6.16667C218.275 6.16667 220.154 6.78889 221.476 8.03333C222.819 9.25556 223.491 11.1556 223.491 13.7333V24.1667H219.776ZM214.487 24.4C213.228 24.4 212.126 24.1778 211.181 23.7333C210.237 23.2667 209.502 22.6333 208.978 21.8333C208.474 21.0111 208.222 20.0889 208.222 19.0667C208.222 18.0667 208.443 17.1667 208.883 16.3667C209.345 15.5667 210.09 14.9333 211.118 14.4667C212.147 14 213.511 13.7667 215.211 13.7667H220.091V16.5333H215.494C214.151 16.5333 213.249 16.7667 212.787 17.2333C212.325 17.6778 212.094 18.2333 212.094 18.9C212.094 19.6556 212.378 20.2556 212.944 20.7C213.511 21.1444 214.298 21.3667 215.305 21.3667C216.271 21.3667 217.131 21.1333 217.887 20.6667C218.664 20.2 219.22 19.5111 219.555 18.6L220.217 21.1C219.839 22.1444 219.157 22.9556 218.17 23.5333C217.205 24.1111 215.977 24.4 214.487 24.4Z" fill="#111111"/>
<path d="M233.735 24.4C232.329 24.4 230.976 24.2111 229.674 23.8333C228.394 23.4333 227.376 22.9556 226.621 22.4L228.132 19.2333C228.887 19.7444 229.79 20.1667 230.839 20.5C231.889 20.8333 232.938 21 233.987 21C235.226 21 236.118 20.8222 236.663 20.4667C237.23 20.1111 237.513 19.6333 237.513 19.0333C237.513 18.5444 237.324 18.1778 236.947 17.9333C236.569 17.6667 236.076 17.4667 235.467 17.3333C234.858 17.2 234.176 17.0778 233.421 16.9667C232.686 16.8556 231.941 16.7111 231.185 16.5333C230.451 16.3333 229.779 16.0556 229.171 15.7C228.562 15.3222 228.069 14.8222 227.691 14.2C227.313 13.5778 227.124 12.7556 227.124 11.7333C227.124 10.6 227.429 9.62222 228.037 8.8C228.646 7.95556 229.496 7.31111 230.587 6.86667C231.7 6.4 233.011 6.16667 234.522 6.16667C235.656 6.16667 236.8 6.3 237.954 6.56667C239.108 6.83333 240.063 7.21111 240.819 7.7L239.308 10.8667C238.51 10.3556 237.702 10.0111 236.884 9.83333C236.086 9.63333 235.289 9.53333 234.491 9.53333C233.295 9.53333 232.403 9.72222 231.815 10.1C231.248 10.4778 230.965 10.9556 230.965 11.5333C230.965 12.0667 231.154 12.4667 231.532 12.7333C231.91 13 232.403 13.2111 233.011 13.3667C233.62 13.5222 234.292 13.6556 235.026 13.7667C235.782 13.8556 236.527 14 237.261 14.2C237.996 14.4 238.668 14.6778 239.276 15.0333C239.906 15.3667 240.41 15.8444 240.787 16.4667C241.165 17.0889 241.354 17.9 241.354 18.9C241.354 20.0111 241.039 20.9778 240.41 21.8C239.801 22.6222 238.93 23.2667 237.797 23.7333C236.663 24.1778 235.31 24.4 233.735 24.4Z" fill="#111111"/>
<path d="M251.071 24.4C249.224 24.4 247.797 23.9 246.789 22.9C245.782 21.8778 245.278 20.3778 245.278 18.4V2.43333H249.213V18.3C249.213 19.1444 249.413 19.8 249.811 20.2667C250.231 20.7333 250.808 20.9667 251.543 20.9667C252.424 20.9667 253.159 20.7222 253.747 20.2333L254.848 23.2C254.387 23.6 253.82 23.9 253.148 24.1C252.477 24.3 251.784 24.4 251.071 24.4ZM242.508 9.83333V6.5H253.715V9.83333H242.508Z" fill="#111111"/>
<path d="M11.2947 1.51316C11.789 0.606728 13.0246 0.606727 13.5188 1.51316L24.6396 21.9079C25.1338 22.8143 24.516 23.9474 23.5275 23.9474H1.28603C0.297517 23.9474 -0.320301 22.8143 0.173954 21.9079L11.2947 1.51316Z" fill="#30A9DE"/>
<path d="M30.1145 2.5C30.1145 1.57953 30.8192 0.833336 31.6886 0.833336H50.3703C51.2397 0.833336 51.9444 1.57953 51.9444 2.5V22.2807C51.9444 23.2012 51.2397 23.9474 50.3703 23.9474H31.6886C30.8192 23.9474 30.1145 23.2012 30.1145 22.2807V2.5Z" fill="#FF7F50"/>
</g>
<defs>
<clipPath id="clip0_65_35">
<rect width="255" height="25" fill="white"/>
</clipPath>
</defs>
</svg>
